<svg width="32" height="32" viewBox="0 0 32 32" fill="none" xmlns="http://www.w3.org/2000/svg">
<mask id="mask0_32_115" style="mask-type:alpha" maskUnits="userSpaceOnUse" x="0" y="0" width="32" height="32">
<rect width="32" height="32" fill="#D9D9D9"/>
</mask>
<g mask="url(#mask0_32_115)">
<path d="M16 19.9667C15.8222 19.9667 15.6556 19.9389 15.5 19.8833C15.3444 19.8278 15.2 19.7333 15.0667 19.6L8.93333 13.4667C8.68889 13.2222 8.56667 12.9111 8.56667 12.5333C8.56667 12.1556 8.68889 11.8444 8.93333 11.6C9.17778 11.3556 9.48889 11.2333 9.86667 11.2333C10.2444 11.2333 10.5556 11.3556 10.8 11.6L16 16.8L21.2 11.6C21.4444 11.3556 21.7556 11.2333 22.1333 11.2333C22.5111 11.2333 22.8222 11.3556 23.0667 11.6C23.3111 11.8444 23.4333 12.1556 23.4333 12.5333C23.4333 12.9111 23.3111 13.2222 23.0667 13.4667L16.9333 19.6C16.8 19.7333 16.6556 19.8278 16.5 19.8833C16.3444 19.9389 16.1778 19.9667 16 19.9667Z" fill="#2659F1"/>
</g>
</svg>
