<svg width="32" height="32" viewBox="0 0 32 32" fill="none" xmlns="http://www.w3.org/2000/svg">
<mask id="mask0_32_322" style="mask-type:alpha" maskUnits="userSpaceOnUse" x="0" y="0" width="32" height="32">
<rect width="32" height="32" fill="#D9D9D9"/>
</mask>
<g mask="url(#mask0_32_322)">
<path d="M16 14.4L10.8 19.6C10.5556 19.8445 10.2444 19.9667 9.86667 19.9667C9.48889 19.9667 9.17778 19.8445 8.93333 19.6C8.68889 19.3556 8.56667 19.0445 8.56667 18.6667C8.56667 18.2889 8.68889 17.9778 8.93333 17.7333L15.0667 11.6C15.3333 11.3333 15.6444 11.2 16 11.2C16.3556 11.2 16.6667 11.3333 16.9333 11.6L23.0667 17.7333C23.3111 17.9778 23.4333 18.2889 23.4333 18.6667C23.4333 19.0445 23.3111 19.3556 23.0667 19.6C22.8222 19.8445 22.5111 19.9667 22.1333 19.9667C21.7556 19.9667 21.4444 19.8445 21.2 19.6L16 14.4Z" fill="#2659F1"/>
</g>
</svg>
